<svg xmlns="http://www.w3.org/2000/svg" xmlns:xlink="http://www.w3.org/1999/xlink" width="1366" zoomAndPan="magnify" viewBox="0 0 1024.5 161.999997" height="768" preserveAspectRatio="xMidYMid meet" version="1.0"><path fill="#e1002a" d="M 167.523438 65.183594 L 129.808594 101.949219 C 129.023438 102.714844 128.664062 103.816406 128.851562 104.898438 L 137.753906 156.8125 C 138.222656 159.53125 135.363281 161.613281 132.917969 160.324219 L 86.300781 135.8125 C 85.328125 135.300781 84.167969 135.300781 83.199219 135.8125 L 36.578125 160.324219 C 34.132812 161.609375 31.277344 159.53125 31.742188 156.8125 L 40.648438 104.898438 C 40.832031 103.816406 40.472656 102.714844 39.6875 101.949219 L 1.96875 65.183594 C -0.0078125 63.253906 1.078125 59.894531 3.8125 59.5 L 55.9375 51.925781 C 57.023438 51.769531 57.960938 51.085938 58.445312 50.101562 L 81.757812 2.871094 C 82.980469 0.394531 86.511719 0.394531 87.734375 2.871094 L 111.046875 50.101562 C 111.53125 51.085938 112.472656 51.765625 113.558594 51.925781 L 165.679688 59.5 C 168.414062 59.894531 169.507812 63.253906 167.527344 65.183594 Z M 379.300781 59.5 L 327.179688 51.925781 C 326.09375 51.769531 325.152344 51.085938 324.667969 50.101562 L 301.363281 2.871094 C 300.136719 0.394531 296.605469 0.394531 295.382812 2.871094 L 272.074219 50.101562 C 271.585938 51.085938 270.648438 51.765625 269.5625 51.925781 L 217.4375 59.5 C 214.703125 59.894531 213.613281 63.253906 215.59375 65.183594 L 253.308594 101.949219 C 254.09375 102.714844 254.449219 103.816406 254.265625 104.898438 L 245.359375 156.8125 C 244.894531 159.53125 247.753906 161.613281 250.195312 160.324219 L 296.816406 135.8125 C 297.789062 135.300781 298.945312 135.300781 299.917969 135.8125 L 346.539062 160.324219 C 348.984375 161.609375 351.839844 159.53125 351.375 156.8125 L 342.46875 104.898438 C 342.28125 103.816406 342.640625 102.714844 343.425781 101.949219 L 381.140625 65.183594 C 383.117188 63.253906 382.03125 59.894531 379.296875 59.5 Z M 592.929688 59.5 L 540.808594 51.925781 C 539.722656 51.769531 538.78125 51.085938 538.296875 50.101562 L 514.988281 2.871094 C 513.761719 0.394531 510.230469 0.394531 509.007812 2.871094 L 485.699219 50.101562 C 485.210938 51.085938 484.273438 51.765625 483.1875 51.925781 L 431.0625 59.5 C 428.328125 59.894531 427.238281 63.253906 429.21875 65.183594 L 466.933594 101.949219 C 467.71875 102.714844 468.074219 103.816406 467.890625 104.898438 L 458.984375 156.8125 C 458.519531 159.53125 461.378906 161.613281 463.820312 160.324219 L 510.441406 135.8125 C 511.414062 135.300781 512.570312 135.300781 513.542969 135.8125 L 560.164062 160.324219 C 562.609375 161.609375 565.464844 159.53125 565 156.8125 L 556.09375 104.898438 C 555.90625 103.816406 556.265625 102.714844 557.050781 101.949219 L 594.765625 65.183594 C 596.742188 63.253906 595.65625 59.894531 592.921875 59.5 Z M 806.558594 59.5 L 754.433594 51.925781 C 753.347656 51.769531 752.410156 51.085938 751.925781 50.101562 L 728.613281 2.871094 C 727.390625 0.394531 723.859375 0.394531 722.636719 2.871094 L 699.324219 50.101562 C 698.839844 51.085938 697.902344 51.765625 696.816406 51.925781 L 644.691406 59.5 C 641.957031 59.894531 640.867188 63.253906 642.847656 65.183594 L 680.5625 101.949219 C 681.347656 102.714844 681.703125 103.816406 681.519531 104.898438 L 672.613281 156.8125 C 672.148438 159.53125 675.007812 161.613281 677.449219 160.324219 L 724.070312 135.8125 C 725.039062 135.300781 726.199219 135.300781 727.171875 135.8125 L 773.789062 160.324219 C 776.238281 161.609375 779.09375 159.53125 778.625 156.8125 L 769.722656 104.898438 C 769.535156 103.816406 769.894531 102.714844 770.679688 101.949219 L 808.394531 65.183594 C 810.371094 63.253906 809.28125 59.894531 806.546875 59.5 Z M 1022.03125 65.183594 C 1024.007812 63.253906 1022.921875 59.894531 1020.1875 59.5 L 968.0625 51.925781 C 966.976562 51.769531 966.039062 51.085938 965.554688 50.101562 L 942.242188 2.871094 C 941.019531 0.394531 937.488281 0.394531 936.265625 2.871094 L 912.953125 50.101562 C 912.46875 51.085938 911.527344 51.765625 910.441406 51.925781 L 858.320312 59.5 C 855.585938 59.894531 854.492188 63.253906 856.472656 65.183594 L 894.1875 101.949219 C 894.976562 102.714844 895.332031 103.816406 895.148438 104.898438 L 886.242188 156.8125 C 885.777344 159.53125 888.632812 161.613281 891.078125 160.324219 L 937.699219 135.8125 C 938.667969 135.300781 939.828125 135.300781 940.800781 135.8125 L 987.417969 160.324219 C 989.867188 161.609375 992.722656 159.53125 992.253906 156.8125 L 983.351562 104.898438 C 983.164062 103.816406 983.523438 102.714844 984.308594 101.949219 L 1022.023438 65.183594 Z M 1022.03125 65.183594 " fill-opacity="1" fill-rule="nonzero"/></svg>